# xmcd CD database file
#
# Track frame offsets:
#	150
#	12490
#	26020
#	37207
#	49472
#	62807
#	75895
#	87967
#	102527
#	113987
#	127337
#	139865
#	152750
#	166192
#
# Disc length: 2380 seconds
#
# Revision: 2
# Processed by: cddbd v1.4PL0 Copyright (c) Steve Scherf et al.
# Submitted via: CDex 1.50beta8
#
DISCID=c3094a0e
DTITLE=Muddy Waters - Trainfare Blues
DYEAR=1900
DGENRE=
TTITLE0=Trainfare Blues
TTITLE1=I'm Ready
TTITLE2=I Can't Call Her Sugar
TTITLE3=Walkin' Thru The Park
TTITLE4=Sad Letter
TTITLE5=You Can't Lose What You Ain't Never Had
TTITLE6=I Can't Be Satisfied
TTITLE7=Baby Please Don't Go
TTITLE8=Sittin' Here Drinkin'
TTITLE9=I Got A Rich Man S Woman
TTITLE10=Mean Mistreater
TTITLE11=Forty Days And Forty Nights
TTITLE12=Rollin' And Tumblin'
TTITLE13=All Aboard
EXTD=
EXTT0=
EXTT1=
EXTT2=
EXTT3=
EXTT4=
EXTT5=
EXTT6=
EXTT7=
EXTT8=
EXTT9=
EXTT10=
EXTT11=
EXTT12=
EXTT13=
PLAYORDER=
